<svg width="72" height="72" viewBox="0 0 72 72" fill="none" xmlns="http://www.w3.org/2000/svg">
  <defs>
    <linearGradient id="m1" x1="10" y1="8" x2="58" y2="64" gradientUnits="userSpaceOnUse">
      <stop stop-color="#63E0FF"/>
      <stop offset="1" stop-color="#7C4DFF"/>
    </linearGradient>
  </defs>
  <rect x="4" y="4" width="64" height="64" rx="22" fill="#0A1325"/>
  <path d="M36 14L51 20.7V33C51 42.8 44.7 51.4 36 54.3C27.3 51.4 21 42.8 21 33V20.7L36 14Z" fill="url(#m1)"/>
  <path d="M28 30.5V35.3C28 39.6 31 43.2 35.2 43.8C39.8 43.1 43 39.2 43 35.2V30.5" stroke="white" stroke-width="4" stroke-linecap="round"/>
  <path d="M28.2 30.1C28.2 26.1 31.4 22.9 35.4 22.9C39.4 22.9 42.6 26.1 42.6 30.1" stroke="white" stroke-width="4" stroke-linecap="round"/>
</svg>
