<svg width="220" height="64" viewBox="0 0 220 64" fill="none" xmlns="http://www.w3.org/2000/svg">
  <defs>
    <linearGradient id="g1" x1="4" y1="4" x2="58" y2="60" gradientUnits="userSpaceOnUse">
      <stop stop-color="#63E0FF"/>
      <stop offset="1" stop-color="#7C4DFF"/>
    </linearGradient>
    <linearGradient id="g2" x1="0" y1="0" x2="1" y2="1">
      <stop stop-color="#FFFFFF"/>
      <stop offset="1" stop-color="#D6DCFF"/>
    </linearGradient>
  </defs>
  <rect x="1.5" y="1.5" width="61" height="61" rx="20" fill="#081227" stroke="rgba(255,255,255,0.16)"/>
  <path d="M32.5 10L47 16.3V28.2C47 37.7 40.9 46.2 32.5 49C24.1 46.2 18 37.7 18 28.2V16.3L32.5 10Z" fill="url(#g1)"/>
  <path d="M25.5 26.5V31.5C25.5 35.9 28.7 39.7 32.9 40.4C37.6 39.6 40.5 35.5 40.5 31.4V26.5" stroke="url(#g2)" stroke-width="3.5" stroke-linecap="round"/>
  <path d="M26 26.2C26 22.3 29.1 19.2 33 19.2C36.9 19.2 40 22.3 40 26.2" stroke="url(#g2)" stroke-width="3.5" stroke-linecap="round"/>
  <path d="M100.756 22.624C99.4238 21.2053 97.5 20.496 94.984 20.496C92.9573 20.496 91.2467 20.8853 89.852 21.664C88.4787 22.4213 87.4333 23.4667 86.716 24.8C86.02 26.112 85.672 27.592 85.672 29.24C85.672 30.888 86.0093 32.3787 86.684 33.712C87.38 35.024 88.404 36.0693 89.756 36.848C91.1293 37.6053 92.8187 37.984 94.824 37.984C97.212 37.984 99.1358 37.3387 100.596 36.048C102.057 34.7573 102.945 32.96 103.26 30.656H96.04V27.584H107.164V31.072C106.892 33.0773 106.132 34.9387 104.884 36.656C103.657 38.3733 102.052 39.76 100.068 40.816C98.1053 41.8507 95.9307 42.368 93.544 42.368C90.9 42.368 88.4787 41.776 86.28 40.592C84.1027 39.3867 82.38 37.728 81.112 35.616C79.8653 33.4827 79.242 31.024 79.242 28.24C79.242 25.456 79.8653 23.008 81.112 20.896C82.38 18.7627 84.1027 17.104 86.28 15.92C88.4573 14.7147 90.868 14.112 93.512 14.112C96.6027 14.112 99.2958 14.8747 101.592 16.4C103.888 17.904 105.484 20.0453 106.38 22.824H100.756V22.624Z" fill="white"/>
  <path d="M116.855 14.528V31.328C116.855 33.1413 117.319 34.5067 118.247 35.424C119.175 36.32 120.487 36.768 122.183 36.768C123.9 36.768 125.223 36.32 126.151 35.424C127.079 34.5067 127.543 33.1413 127.543 31.328V14.528H132.583V31.296C132.583 33.6 132.087 35.552 131.095 37.152C130.103 38.752 128.769 39.9573 127.095 40.768C125.442 41.5787 123.607 41.984 121.591 41.984C119.575 41.984 117.751 41.5787 116.119 40.768C114.508 39.9573 113.228 38.752 112.279 37.152C111.33 35.552 110.855 33.6 110.855 31.296V14.528H116.855Z" fill="white"/>
</svg>
